<svg width="1173" height="1058" viewBox="0 0 1173 1058" fill="none" xmlns="http://www.w3.org/2000/svg">
<path d="M-163.484 482.275C-70.1872 495.252 19.8614 558.566 121.887 590.49C226.893 623.202 231.23 605.152 373.182 648.598C462.931 676.011 696.879 829.631 785.852 867.983C892.945 914 956.393 910.683 1058.53 963.119C1119.46 994.437 1180.03 1025.61 1240.96 1056.93" stroke="url(#paint0_linear_13_165)" stroke-miterlimit="10"/>
<path d="M-159.122 469.207C-97.1633 477.762 -36.1582 508.836 27.5429 537.874C59.2146 552.321 91.4803 566.194 125.25 576.738C229.816 609.541 235.942 592.21 375.748 636.011C403.637 644.743 444.253 665.212 489.88 690.127C586.58 743.087 705.31 815.17 773.265 847.267C778.869 849.918 784.154 852.306 789.121 854.431C876.819 891.726 935.873 896.813 1010.41 926.128C1026.9 932.597 1044.19 940.334 1062.55 949.721C1123.52 980.915 1184.4 1012.35 1245.33 1043.66" stroke="url(#paint1_linear_13_165)" stroke-miterlimit="10"/>
<path d="M-154.762 456.155C-93.202 464.685 -32.5171 495.492 31.2219 524.405C62.5353 538.707 94.8016 552.578 128.531 563.24C232.301 595.991 240.61 579.402 378.229 623.677C406.039 632.646 446.615 653.232 491.844 678.12C588.78 731.574 707.227 802.044 776.412 834.087C782.015 836.737 787.3 839.125 792.306 841.13C879.803 877.797 939.453 883.529 1013.99 912.839C1030.48 919.308 1047.81 926.924 1066.17 936.309C1127.53 967.522 1188.41 998.951 1249.3 1030.38" stroke="url(#paint2_linear_13_165)" stroke-miterlimit="10"/>
<path d="M-150.402 443.085C-88.8434 451.614 -28.4776 482.155 34.9027 510.921C66.2154 525.221 98.1626 538.827 131.852 549.608C234.865 582.189 245.28 566.58 380.793 611.091C408.921 620.322 449.02 641.121 493.85 665.982C591.382 720.075 709.188 788.79 779.601 820.78C785.244 823.31 790.529 825.697 795.496 827.822C882.394 863.839 942.639 870.216 1017.93 899.689C1034.42 906.157 1051.75 913.772 1070.11 923.156C1131.51 954.245 1192.35 985.79 1253.99 1017.38" stroke="url(#paint3_linear_13_165)" stroke-miterlimit="10"/>
<path d="M-146 429.905C-84.8398 438.409 -24.3962 468.706 38.5855 497.444C69.5794 511.48 101.844 525.346 135.174 535.982C237.391 568.51 249.951 553.763 383.318 598.628C411.723 608.24 451.424 629.012 495.857 653.846C593.625 708.433 711.148 775.535 782.791 807.471C788.434 810.001 793.718 812.388 798.725 814.393C885.422 849.782 946.261 856.804 1021.55 886.272C1038.4 892.882 1055.72 900.495 1074.12 909.759C1135.92 940.867 1196.76 972.407 1258.36 1004.11" stroke="url(#paint4_linear_13_165)" stroke-miterlimit="10"/>
<path d="M-141.643 416.843C-80.8809 425.323 -20.3988 455.496 42.2636 483.968C73.2569 498.002 105.202 511.604 138.493 522.358C239.913 554.835 254.58 541.069 385.84 586.169C414.563 596.043 453.787 617.029 497.822 641.836C595.827 696.918 713.067 762.41 785.939 794.293C791.582 796.822 796.906 799.09 801.912 801.094C888.368 835.977 949.804 843.643 1025.13 872.988C1041.98 879.597 1059.3 887.21 1077.7 896.472C1139.89 927.6 1200.69 959.255 1262.29 990.958" stroke="url(#paint5_linear_13_165)" stroke-miterlimit="10"/>
<path d="M-137.28 403.782C-76.8773 412.117 -16.7145 442.023 45.9464 470.491C76.939 484.522 108.526 497.979 141.815 508.732C242.479 541.037 259.609 528.395 388.365 573.706C417.009 583.817 456.152 605.039 499.829 629.699C598.071 685.275 715.027 749.154 789.128 780.983C794.81 783.393 800.134 785.66 805.14 787.664C891.355 822.04 953.426 830.23 1028.75 859.571C1045.6 866.179 1063.28 873.933 1081.72 883.074C1143.95 914.078 1204.71 945.848 1267.02 977.832" stroke="url(#paint6_linear_13_165)" stroke-miterlimit="10"/>
<path d="M-132.926 390.72C-72.5636 399.174 -12.6811 428.694 49.6213 457.016C80.2558 470.902 112.201 484.501 145.132 495.109C244.96 527.484 264.235 515.701 390.885 561.248C419.846 571.621 458.553 592.936 501.792 617.69C600.271 673.762 716.548 736.009 792.594 768.072C798.276 770.481 803.6 772.748 808.606 774.751C894.62 808.502 957.286 817.337 1032.97 846.817C1050.17 853.567 1067.54 861.059 1085.93 870.318C1148.52 901.462 1209.32 933.108 1271.63 965.089" stroke="url(#paint7_linear_13_165)" stroke-miterlimit="10"/>
<path d="M-128.563 377.658C-68.5598 385.967 -8.6785 415.483 53.3043 443.538C83.9382 457.422 115.564 470.756 148.455 481.483C247.527 513.686 269.225 503.146 393.411 548.784C422.65 559.538 460.919 580.946 503.799 605.553C602.516 662.118 718.509 722.754 795.784 754.763C801.465 757.172 806.829 759.319 811.835 761.322C897.25 794.423 960.868 804.044 1036.59 833.401C1053.83 840.03 1071.16 847.64 1089.59 856.779C1152.22 887.798 1213.33 919.703 1275.64 951.678" stroke="url(#paint8_linear_13_165)" stroke-miterlimit="10"/>
<path d="M-124.158 364.468C-64.5532 372.753 -4.95162 401.882 57.0298 429.933C87.3054 443.672 118.93 457.004 151.821 467.728C250.096 499.88 274.257 490.462 395.622 536.049C425.138 547.183 462.971 568.684 505.493 593.144C604.764 650.465 720.156 709.229 798.659 741.184C804.38 743.473 809.704 745.739 814.749 747.623C899.924 780.217 964.177 790.362 1039.9 819.714C1057.14 826.342 1074.82 834.094 1093.29 843.112C1156.31 874.15 1217.43 906.05 1279.69 938.14" stroke="url(#paint9_linear_13_165)" stroke-miterlimit="10"/>
<path d="M-119.801 351.405C-60.5943 359.665 -0.954173 388.671 60.7081 416.456C91.0226 430.074 122.289 443.261 155.139 454.104C252.618 486.204 278.846 477.885 398.143 523.588C427.978 534.984 465.334 556.698 507.458 581.132C606.966 638.947 721.678 696.079 801.808 728.005C807.529 730.294 812.892 732.44 817.937 734.323C902.871 766.411 967.362 777.056 1043.48 806.429C1060.72 813.057 1078.4 820.807 1096.87 829.824C1159.93 860.739 1221.01 892.755 1283.99 925.127" stroke="url(#paint10_linear_13_165)" stroke-miterlimit="10"/>
<path d="M-115.439 338.342C-56.5905 346.458 3.08803 375.34 64.3914 402.978C94.7052 416.594 125.97 429.778 158.463 440.477C255.146 472.525 283.796 465.448 400.67 511.122C430.782 522.899 467.74 544.586 509.466 568.992C609.211 627.301 723.601 682.943 804.999 714.695C810.719 716.984 816.082 719.13 821.127 721.013C905.82 752.595 970.946 763.764 1047.42 793.275C1065.02 800.044 1082.73 807.674 1100.85 816.547C1164.31 847.48 1225.38 879.491 1288.36 911.859" stroke="url(#paint11_linear_13_165)" stroke-miterlimit="10"/>
<path d="M-111.084 325.287C-52.2769 333.521 7.12131 362.018 68.066 389.509C98.0218 402.98 129.288 416.164 161.74 426.981C258.024 459.002 289.058 453.285 403.151 498.789C433.541 510.946 470.061 532.726 511.389 557.107C611.372 615.91 725.478 669.944 808.106 701.644C813.866 703.813 819.229 705.958 824.273 707.841C908.368 738.774 974.487 750.61 1050.96 780.118C1068.56 786.887 1086.27 794.516 1104.75 803.53C1168.6 834.483 1229.63 866.61 1292.61 898.974" stroke="url(#paint12_linear_13_165)" stroke-miterlimit="10"/>
<path d="M-106.722 312.222C-48.273 320.312 10.7666 348.661 71.7494 376.029C101.705 389.499 132.652 402.418 165.064 413.352C260.551 445.322 293.969 440.965 405.676 486.322C436.384 498.739 472.786 520.875 513.398 544.966C613.578 604.381 727.043 656.664 811.296 688.334C817.056 690.502 822.459 692.528 827.504 694.41C911.397 724.719 978.071 737.316 1054.58 766.7C1072.18 773.468 1089.9 781.096 1108.41 789.99C1172.3 820.819 1233.29 853.06 1296.98 885.706" stroke="url(#paint13_linear_13_165)" stroke-miterlimit="10"/>
<path d="M-102.322 299.026C-44.2716 307.092 14.8461 335.199 75.4704 362.421C105.068 375.746 136.371 388.807 168.425 399.597C263.117 431.516 298.958 428.4 408.243 473.73C439.228 486.528 475.192 508.757 515.407 532.821C615.824 592.732 728.969 643.528 814.49 675.026C820.25 677.194 825.652 679.219 830.736 680.982C914.389 710.786 981.698 723.907 1058.2 753.287C1075.8 760.054 1093.88 767.824 1112.39 776.717C1176.67 807.566 1237.66 839.804 1301.32 872.565" stroke="url(#paint14_linear_13_165)" stroke-miterlimit="10"/>
<path d="M-97.9596 285.955C-40.3071 293.997 18.8886 321.861 79.1542 348.936C108.751 362.259 139.735 375.056 171.749 385.964C265.685 417.712 303.87 416.075 410.77 461.258C442.033 474.436 477.6 496.639 517.417 520.676C618.429 581.223 730.535 630.246 817.683 661.714C823.482 663.762 828.884 665.787 833.929 667.669C917.341 696.967 985.245 710.731 1062.15 740.131C1080.1 747.04 1097.82 754.666 1116.37 763.438C1180.69 794.164 1242 826.66 1305.69 859.297" stroke="url(#paint15_linear_13_165)" stroke-miterlimit="10"/>
<path d="M-93.5997 272.882C-36.3058 280.779 22.5316 308.498 82.8356 335.45C112.471 348.652 143.058 361.423 175.071 372.331C268.211 404.028 308.78 403.75 413.296 448.786C444.837 462.345 479.966 484.641 519.783 508.675C620.992 569.835 732.856 617.133 821.59 648.692C827.389 650.74 832.791 652.765 837.875 654.527C921.047 683.32 989.228 697.464 1066.49 727.004C1084.44 733.912 1102.55 741.56 1120.71 750.308C1185.43 781.053 1246.73 813.545 1310.74 846.441" stroke="url(#paint16_linear_13_165)" stroke-miterlimit="10"/>
<path d="M-89.2461 259.804C-31.9923 267.82 26.5652 295.154 86.511 321.961C115.789 335.019 146.376 347.79 178.389 358.696C270.735 390.344 313.647 391.544 415.859 436.197C447.678 450.137 482.37 472.526 521.789 496.536C623.236 558.192 734.778 604.006 824.781 635.394C830.58 637.442 836.022 639.347 841.464 641.252C924.038 669.399 993.212 684.21 1070.47 713.746C1088.42 720.654 1106.54 728.302 1125.09 737.072C1189.85 767.696 1251.11 800.305 1315.47 833.341" stroke="url(#paint17_linear_13_165)" stroke-miterlimit="10"/>
<path d="M-84.9091 246.728C-28.0127 254.601 30.5844 281.816 90.1727 308.481C119.45 321.539 150.077 334.19 181.693 345.073C273.284 376.554 318.54 379.233 418.371 423.745C450.469 438.066 484.724 460.552 523.786 484.418C625.472 546.576 736.298 590.887 827.968 622.129C833.767 624.177 839.208 626.082 844.689 627.868C927.024 655.514 996.795 670.969 1074.09 700.386C1092.09 707.175 1110.16 714.942 1128.71 723.712C1193.86 754.359 1255.13 786.968 1319.45 820.124" stroke="url(#paint18_linear_13_165)" stroke-miterlimit="10"/>
<path d="M-80.5342 233.525C-24.0346 241.375 34.6023 268.472 93.8728 294.874C122.793 307.79 153.42 320.441 185.036 331.324C275.833 362.759 323.792 367.059 420.565 411.026C453.299 425.872 486.761 448.312 525.426 472.155C627.312 534.935 737.856 577.646 830.796 608.721C836.635 610.65 842.077 612.555 847.518 614.46C929.615 641.605 1000.02 657.585 1077.68 687.146C1096.03 694.078 1114.1 701.846 1132.69 710.496C1198.2 741.287 1259.47 773.897 1324.19 807.077" stroke="url(#paint19_linear_13_165)" stroke-miterlimit="10"/>
<path d="M-76.2001 220.448C-20.0974 228.275 38.2614 254.99 97.5321 281.393C126.452 294.309 156.761 306.697 188.337 317.7C278.341 349.089 328.645 354.867 423.076 398.575C456.089 413.803 489.114 436.339 527.421 460.04C629.547 523.322 739.771 564.554 833.982 595.461C839.82 597.39 845.262 599.295 850.743 601.081C932.561 627.844 1003.64 644.23 1081.3 673.792C1099.65 680.723 1117.76 688.372 1136.32 697.142C1201.87 727.814 1263.09 760.544 1328.17 793.867" stroke="url(#paint20_linear_13_165)" stroke-miterlimit="10"/>
<path d="M-71.8686 207.368C-16.1231 215.052 42.2757 241.649 101.189 267.91C129.752 280.683 160.418 293.215 191.637 304.075C280.887 335.299 333.496 342.675 425.584 386.124C458.836 401.854 491.466 424.367 529.416 447.926C631.741 511.832 741.329 551.323 837.167 582.205C843.006 584.134 848.486 585.92 853.967 587.706C935.189 613.826 1007.23 630.999 1084.92 660.443C1103.27 667.375 1121.74 675.166 1139.98 683.675C1205.93 714.371 1267.15 747.103 1332.19 780.546" stroke="url(#paint21_linear_13_165)" stroke-miterlimit="10"/>
<path d="M-67.5444 194.295C-11.8379 202.098 46.2426 228.434 104.839 254.434C133.441 267.089 163.751 279.479 194.892 290.579C283.348 321.757 338.302 330.613 428.049 373.803C461.58 389.916 493.812 412.407 531.326 436.064C633.891 500.474 743.12 538.606 840.269 569.203C846.147 571.012 851.588 572.918 857.108 574.584C938.092 600.205 1010.41 617.761 1088.82 647.492C1107.53 654.568 1125.64 662.216 1144.27 670.749C1210.26 701.328 1271.81 734.323 1337.2 767.912" stroke="url(#paint22_linear_13_165)" stroke-miterlimit="10"/>
<path d="M-63.1735 181.086C-7.82405 188.748 49.9391 214.822 108.536 240.824C137.139 253.479 167.091 265.727 198.232 276.827C285.894 307.96 343.154 318.414 430.599 361.227C464.409 377.723 496.205 400.311 533.361 423.826C636.127 488.86 745.076 525.394 843.495 555.824C849.016 557.491 854.855 559.42 860.375 561.086C941.12 586.207 1014.03 604.408 1092.48 634.021C1111.19 641.097 1129.67 648.89 1147.94 657.28C1214.32 687.884 1275.87 720.881 1341.27 754.471" stroke="url(#paint23_linear_13_165)" stroke-miterlimit="10"/>
<path d="M-58.8499 168.003C-3.89676 175.641 53.9067 201.598 112.186 227.34C140.432 239.853 170.384 252.102 201.525 263.203C288.434 294.172 347.96 306.344 433.103 348.78C467.152 365.779 498.552 388.346 535.312 411.839C638.279 477.499 746.908 512.556 846.638 542.7C852.159 544.367 857.998 546.296 863.519 547.963C944.026 572.584 1017.58 591.312 1096.03 620.927C1114.74 628.004 1133.25 635.677 1151.88 644.211C1218.66 674.841 1279.81 707.817 1345.57 741.554" stroke="url(#paint24_linear_13_165)" stroke-miterlimit="10"/>
<path d="M-54.5225 154.914C0.0341449 162.529 57.9174 188.249 115.84 213.849C144.086 226.364 174.077 238.494 204.822 249.572C291.296 280.639 352.81 294.149 435.611 336.327C469.939 353.709 500.902 376.373 537.305 399.725C640.512 465.891 748.465 499.327 850.141 529.71C855.662 531.377 861.541 533.187 867.062 534.854C947.331 558.975 1021.52 578.229 1099.97 607.847C1118.68 614.924 1137.19 622.598 1155.82 631.132C1222.65 661.645 1284.15 694.766 1350.23 728.767" stroke="url(#paint25_linear_13_165)" stroke-miterlimit="10"/>
<path d="M-50.2006 141.826C3.9993 149.299 61.9231 174.902 119.489 200.362C147.378 212.734 177.369 224.866 208.114 235.945C293.795 266.968 357.257 281.934 438.114 323.88C472.324 341.621 503.249 364.407 539.255 387.738C642.663 454.532 750.298 486.489 853.285 516.588C858.845 518.135 864.724 519.945 870.245 521.612C950.236 545.354 1025.06 565.135 1103.91 594.779C1122.98 601.999 1141.49 609.674 1159.81 617.946C1227.03 648.486 1288.5 681.73 1354.57 715.734" stroke="url(#paint26_linear_13_165)" stroke-miterlimit="10"/>
<path d="M-45.8753 128.734C8.28579 136.327 65.534 161.527 123.14 186.869C151.029 199.243 180.705 211.113 211.41 222.313C296.338 253.172 362.066 269.857 440.621 311.426C475.071 329.671 505.598 352.435 541.247 375.625C644.896 442.926 752.172 473.524 856.47 503.338C862.03 504.885 867.909 506.696 873.47 508.243C952.866 531.343 1028.68 551.793 1107.54 581.44C1126.6 588.661 1145.12 596.337 1163.79 604.753C1231.05 635.175 1292.48 668.541 1358.95 702.572" stroke="url(#paint27_linear_13_165)" stroke-miterlimit="10"/>
<path d="M-41.5086 115.517C12.2957 122.968 69.5843 148.05 126.833 173.251C154.762 185.506 184.041 197.354 214.747 208.555C298.882 239.37 366.877 257.775 443.169 298.848C477.858 317.596 507.631 340.195 543.281 363.387C647.13 431.315 754.128 460.316 859.697 489.963C865.258 491.511 871.175 493.201 876.696 494.868C955.854 517.468 1031.91 538.422 1111.16 568.095C1130.27 575.197 1149.14 583.016 1167.46 591.29C1235.11 621.738 1296.55 655.108 1363.34 689.404" stroke="url(#paint28_linear_13_165)" stroke-miterlimit="10"/>
<path d="M-37.1884 102.419C16.2198 109.847 73.5886 134.693 130.481 159.755C158.053 171.868 187.729 183.741 218.039 194.92C301.42 225.572 371.325 245.554 445.316 286.252C480.284 305.385 509.621 328.083 544.874 351.254C648.567 419.668 755.604 447.334 862.485 476.697C868.045 478.245 873.964 479.936 879.524 481.484C958.445 503.585 1035.14 525.066 1114.39 554.743C1133.5 561.846 1152.37 569.666 1170.69 577.941C1238.78 608.297 1300.14 641.91 1366.93 676.21" stroke="url(#paint29_linear_13_165)" stroke-miterlimit="10"/>
<path d="M-32.8659 89.3195C20.1461 96.7252 77.198 121.312 134.131 146.256C161.703 158.371 191.022 170.102 221.332 181.282C303.921 211.89 375.775 233.331 447.82 273.796C482.671 293.289 511.969 316.11 546.865 339.14C650.76 408.183 757.478 434.37 865.67 463.448C871.271 464.877 877.189 466.568 882.75 468.116C961.393 489.837 1038.77 511.727 1118.38 541.549C1137.84 548.796 1156.35 556.475 1175.07 564.774C1243.21 595.014 1304.92 628.773 1371.67 663.197" stroke="url(#paint30_linear_13_165)" stroke-miterlimit="10"/>
<path d="M-28.5454 76.224C24.4676 83.6306 81.2026 107.957 137.779 132.762C164.994 144.735 194.313 156.466 224.584 167.767C306.38 198.332 380.184 221.232 450.324 261.345C485.375 281.462 514.316 304.141 548.816 327.151C652.951 396.704 759.312 421.532 868.816 450.325C874.416 451.754 880.334 453.445 885.934 454.874C964.34 476.096 1042.31 498.633 1121.96 528.339C1141.43 535.587 1160.3 543.409 1178.65 551.566C1247.15 581.952 1308.51 615.572 1375.66 650.024" stroke="url(#paint31_linear_13_165)" stroke-miterlimit="10"/>
<path d="M-24.2235 63.1187C28.3934 70.5026 85.2077 94.5928 141.427 119.257C168.643 131.232 198.003 142.846 227.878 154.124C308.921 184.526 384.594 209.124 452.829 248.885C488.12 269.506 516.664 292.165 550.807 315.034C655.144 385.217 761.187 408.567 872.002 437.075C877.603 438.504 883.56 440.076 889.121 441.624C967.289 462.347 1045.9 485.412 1125.55 515.122C1145.02 522.371 1163.93 530.074 1182.64 538.375C1251.18 568.646 1312.89 602.413 1380.36 637.131" stroke="url(#paint32_linear_13_165)" stroke-miterlimit="10"/>
<path d="M-19.8624 49.8788C32.3981 57.1207 89.2139 81.2146 145.117 105.62C172.333 117.596 201.336 129.069 231.212 140.349C311.502 170.589 389.085 196.767 455.376 236.297C490.549 257.28 519.055 280.062 552.801 302.91C657.34 373.725 763.422 395.739 875.192 423.82C880.793 425.25 886.394 426.679 892.352 428.251C970.243 448.595 1049.49 472.188 1129.18 501.783C1149.01 509.176 1167.92 516.881 1186.31 524.92C1255.25 555.219 1316.93 589.111 1384.4 623.834" stroke="url(#paint33_linear_13_165)" stroke-miterlimit="10"/>
<path d="M-15.5411 36.7682C36.3234 43.9876 92.8619 67.7023 148.766 92.111C175.665 103.826 204.668 115.3 234.505 126.702C314.002 156.898 393.496 184.656 457.882 223.835C492.937 245.179 521.404 268.084 554.793 290.792C659.176 362.095 765.298 382.772 878.38 410.569C883.98 411.999 889.621 413.308 895.579 414.881C973.232 434.725 1052.76 458.705 1133.17 488.59C1152.99 495.983 1171.91 503.689 1190.3 511.73C1259.64 542.056 1320.92 575.929 1388.75 610.8" stroke="url(#paint34_linear_13_165)" stroke-miterlimit="10"/>
<path d="M-11.22 23.6508C40.2485 30.8477 96.828 54.4462 152.415 78.5956C179.315 90.3124 207.96 101.645 237.798 113.048C316.503 143.202 397.588 172.277 460.388 211.367C495.643 233.336 523.753 256.101 556.786 278.67C661.37 350.604 767.174 369.802 881.926 397.458C887.567 398.768 893.168 400.198 899.165 401.651C976.542 421.115 1056.75 445.504 1137.16 475.393C1156.98 482.788 1175.89 490.495 1194.69 498.56C1264.06 528.771 1325.7 562.792 1393.89 597.811" stroke="url(#paint35_linear_13_165)" stroke-miterlimit="10"/>
<path d="M-6.90175 10.5062C44.5684 17.7045 100.832 41.0453 156.063 65.0565C253.374 107.542 378.946 145.359 462.538 198.742C497.676 221.074 525.747 243.963 558.383 266.513C663.171 339.084 768.659 356.804 884.724 384.177C966.987 403.569 1053.79 430.061 1140.36 462.151C1235.59 497.439 1311.31 540.352 1397.46 584.738" stroke="url(#paint36_linear_13_165)" stroke-miterlimit="10"/>
<defs>
<linearGradient id="paint0_linear_13_165" x1="536.608" y1="775.393" x2="558.312" y2="721.211" gradientUnits="userSpaceOnUse">
<stop stop-color="white"/>
<stop offset="1"/>
</linearGradient>
<linearGradient id="paint1_linear_13_165" x1="540.964" y1="762.259" x2="562.146" y2="709.375" gradientUnits="userSpaceOnUse">
<stop stop-color="white"/>
<stop offset="1"/>
</linearGradient>
<linearGradient id="paint2_linear_13_165" x1="545.315" y1="749.137" x2="565.981" y2="697.535" gradientUnits="userSpaceOnUse">
<stop stop-color="white"/>
<stop offset="1"/>
</linearGradient>
<linearGradient id="paint3_linear_13_165" x1="549.67" y1="736.006" x2="569.824" y2="685.676" gradientUnits="userSpaceOnUse">
<stop stop-color="white"/>
<stop offset="1"/>
</linearGradient>
<linearGradient id="paint4_linear_13_165" x1="554.024" y1="722.875" x2="573.67" y2="673.809" gradientUnits="userSpaceOnUse">
<stop stop-color="white"/>
<stop offset="1"/>
</linearGradient>
<linearGradient id="paint5_linear_13_165" x1="558.377" y1="709.752" x2="577.519" y2="661.938" gradientUnits="userSpaceOnUse">
<stop stop-color="white"/>
<stop offset="1"/>
</linearGradient>
<linearGradient id="paint6_linear_13_165" x1="562.731" y1="696.621" x2="581.373" y2="650.05" gradientUnits="userSpaceOnUse">
<stop stop-color="white"/>
<stop offset="1"/>
</linearGradient>
<linearGradient id="paint7_linear_13_165" x1="567.082" y1="683.502" x2="585.229" y2="638.163" gradientUnits="userSpaceOnUse">
<stop stop-color="white"/>
<stop offset="1"/>
</linearGradient>
<linearGradient id="paint8_linear_13_165" x1="571.437" y1="670.371" x2="589.092" y2="626.256" gradientUnits="userSpaceOnUse">
<stop stop-color="white"/>
<stop offset="1"/>
</linearGradient>
<linearGradient id="paint9_linear_13_165" x1="575.795" y1="657.232" x2="592.962" y2="614.33" gradientUnits="userSpaceOnUse">
<stop stop-color="white"/>
<stop offset="1"/>
</linearGradient>
<linearGradient id="paint10_linear_13_165" x1="580.148" y1="644.108" x2="596.831" y2="602.41" gradientUnits="userSpaceOnUse">
<stop stop-color="white"/>
<stop offset="1"/>
</linearGradient>
<linearGradient id="paint11_linear_13_165" x1="584.503" y1="630.976" x2="600.707" y2="590.473" gradientUnits="userSpaceOnUse">
<stop stop-color="white"/>
<stop offset="1"/>
</linearGradient>
<linearGradient id="paint12_linear_13_165" x1="588.853" y1="617.861" x2="604.581" y2="578.542" gradientUnits="userSpaceOnUse">
<stop stop-color="white"/>
<stop offset="1"/>
</linearGradient>
<linearGradient id="paint13_linear_13_165" x1="593.209" y1="604.728" x2="608.471" y2="566.569" gradientUnits="userSpaceOnUse">
<stop stop-color="white"/>
<stop offset="1"/>
</linearGradient>
<linearGradient id="paint14_linear_13_165" x1="597.565" y1="591.594" x2="612.382" y2="554.544" gradientUnits="userSpaceOnUse">
<stop stop-color="white"/>
<stop offset="1"/>
</linearGradient>
<linearGradient id="paint15_linear_13_165" x1="601.922" y1="578.458" x2="616.311" y2="542.475" gradientUnits="userSpaceOnUse">
<stop stop-color="white"/>
<stop offset="1"/>
</linearGradient>
<linearGradient id="paint16_linear_13_165" x1="606.278" y1="565.325" x2="620.254" y2="530.37" gradientUnits="userSpaceOnUse">
<stop stop-color="white"/>
<stop offset="1"/>
</linearGradient>
<linearGradient id="paint17_linear_13_165" x1="610.497" y1="552.606" x2="624.235" y2="518.246" gradientUnits="userSpaceOnUse">
<stop stop-color="white"/>
<stop offset="1"/>
</linearGradient>
<linearGradient id="paint18_linear_13_165" x1="614.517" y1="540.49" x2="628.255" y2="506.13" gradientUnits="userSpaceOnUse">
<stop stop-color="white"/>
<stop offset="1"/>
</linearGradient>
<linearGradient id="paint19_linear_13_165" x1="618.505" y1="528.472" x2="632.294" y2="493.985" gradientUnits="userSpaceOnUse">
<stop stop-color="white"/>
<stop offset="1"/>
</linearGradient>
<linearGradient id="paint20_linear_13_165" x1="622.462" y1="516.548" x2="636.346" y2="481.822" gradientUnits="userSpaceOnUse">
<stop stop-color="white"/>
<stop offset="1"/>
</linearGradient>
<linearGradient id="paint21_linear_13_165" x1="626.392" y1="504.704" x2="640.414" y2="469.636" gradientUnits="userSpaceOnUse">
<stop stop-color="white"/>
<stop offset="1"/>
</linearGradient>
<linearGradient id="paint22_linear_13_165" x1="630.295" y1="492.941" x2="644.491" y2="457.439" gradientUnits="userSpaceOnUse">
<stop stop-color="white"/>
<stop offset="1"/>
</linearGradient>
<linearGradient id="paint23_linear_13_165" x1="634.184" y1="481.221" x2="648.588" y2="445.2" gradientUnits="userSpaceOnUse">
<stop stop-color="white"/>
<stop offset="1"/>
</linearGradient>
<linearGradient id="paint24_linear_13_165" x1="638.052" y1="469.564" x2="652.695" y2="432.949" gradientUnits="userSpaceOnUse">
<stop stop-color="white"/>
<stop offset="1"/>
</linearGradient>
<linearGradient id="paint25_linear_13_165" x1="641.908" y1="457.945" x2="656.819" y2="420.663" gradientUnits="userSpaceOnUse">
<stop stop-color="white"/>
<stop offset="1"/>
</linearGradient>
<linearGradient id="paint26_linear_13_165" x1="645.749" y1="446.372" x2="660.954" y2="408.356" gradientUnits="userSpaceOnUse">
<stop stop-color="white"/>
<stop offset="1"/>
</linearGradient>
<linearGradient id="paint27_linear_13_165" x1="649.581" y1="434.826" x2="665.107" y2="396.011" gradientUnits="userSpaceOnUse">
<stop stop-color="white"/>
<stop offset="1"/>
</linearGradient>
<linearGradient id="paint28_linear_13_165" x1="653.405" y1="423.304" x2="669.277" y2="383.627" gradientUnits="userSpaceOnUse">
<stop stop-color="white"/>
<stop offset="1"/>
</linearGradient>
<linearGradient id="paint29_linear_13_165" x1="657.218" y1="411.818" x2="673.462" y2="371.215" gradientUnits="userSpaceOnUse">
<stop stop-color="white"/>
<stop offset="1"/>
</linearGradient>
<linearGradient id="paint30_linear_13_165" x1="661.024" y1="400.35" x2="677.665" y2="358.757" gradientUnits="userSpaceOnUse">
<stop stop-color="white"/>
<stop offset="1"/>
</linearGradient>
<linearGradient id="paint31_linear_13_165" x1="664.822" y1="388.909" x2="681.888" y2="346.26" gradientUnits="userSpaceOnUse">
<stop stop-color="white"/>
<stop offset="1"/>
</linearGradient>
<linearGradient id="paint32_linear_13_165" x1="668.615" y1="377.478" x2="686.14" y2="333.687" gradientUnits="userSpaceOnUse">
<stop stop-color="white"/>
<stop offset="1"/>
</linearGradient>
<linearGradient id="paint33_linear_13_165" x1="672.407" y1="366.057" x2="690.411" y2="321.075" gradientUnits="userSpaceOnUse">
<stop stop-color="white"/>
<stop offset="1"/>
</linearGradient>
<linearGradient id="paint34_linear_13_165" x1="676.192" y1="354.656" x2="694.703" y2="308.41" gradientUnits="userSpaceOnUse">
<stop stop-color="white"/>
<stop offset="1"/>
</linearGradient>
<linearGradient id="paint35_linear_13_165" x1="679.965" y1="343.289" x2="699.045" y2="295.628" gradientUnits="userSpaceOnUse">
<stop stop-color="white"/>
<stop offset="1"/>
</linearGradient>
<linearGradient id="paint36_linear_13_165" x1="683.754" y1="331.877" x2="703.524" y2="282.502" gradientUnits="userSpaceOnUse">
<stop stop-color="white"/>
<stop offset="1"/>
</linearGradient>
</defs>
</svg>
